<svg width="18" height="14" viewBox="0 0 18 14" fill="none" xmlns="http://www.w3.org/2000/svg">
    <path d="M17.0526 11.6667V12.4444C17.0526 12.857 16.853 13.2527 16.4977 13.5444C16.1423 13.8361 15.6604 14 15.1579 14H1.89474C0.843158 14 0 13.3 0 12.4444V1.55556C0 1.143 0.199623 0.747335 0.554955 0.455612C0.910288 0.163888 1.39222 0 1.89474 0H15.1579C15.6604 0 16.1423 0.163888 16.4977 0.455612C16.853 0.747335 17.0526 1.143 17.0526 1.55556V2.33333H8.52632C7.47474 2.33333 6.63158 3.03333 6.63158 3.88889V10.1111C6.63158 10.5237 6.8312 10.9193 7.18653 11.2111C7.54187 11.5028 8.0238 11.6667 8.52632 11.6667H17.0526ZM8.52632 10.1111H18V3.88889H8.52632V10.1111ZM12.3158 8.16667C11.9389 8.16667 11.5775 8.04375 11.311 7.82496C11.0445 7.60617 10.8947 7.30942 10.8947 7C10.8947 6.69058 11.0445 6.39383 11.311 6.17504C11.5775 5.95625 11.9389 5.83333 12.3158 5.83333C12.6927 5.83333 13.0541 5.95625 13.3206 6.17504C13.5871 6.39383 13.7368 6.69058 13.7368 7C13.7368 7.30942 13.5871 7.60617 13.3206 7.82496C13.0541 8.04375 12.6927 8.16667 12.3158 8.16667Z" fill="white"/>
</svg>
