<svg width="236" height="40" viewBox="0 0 236 40" fill="none" xmlns="http://www.w3.org/2000/svg">
    <path d="M109.404 14.9991L109.902 22.9202C111.348 37.6269 125.605 42.2002 127.472 31.4672C127.093 24.3632 116.836 30.3531 115.256 14.5853C114.693 9.35942 109.231 9.69368 109.404 14.9991ZM148.051 21.5248C149.821 21.5248 151.25 22.9308 151.25 24.6603C151.25 26.3952 149.816 27.7959 148.051 27.7959C146.281 27.7959 144.852 26.3899 144.852 24.6603C144.852 22.9308 146.287 21.5248 148.051 21.5248ZM129.377 11.8424V20.7555C128.928 27.5094 138.379 29.3291 138.308 20.3205C138.292 18.1452 138.384 19.8801 138.384 15.5244C138.032 8.08081 139.683 7.8739 145.285 7.93226C151.732 7.99593 158.898 12.5427 158.898 19.5194C159.342 30.6077 147.461 33.1278 139.396 30.4327C132.376 28.0877 129.572 28.597 128.322 32.5071C127.396 35.3986 129.529 38.3484 132.798 39.0965C144.728 41.3036 167.228 41.1073 166.503 18.9146C166.119 7.00381 158.736 0.966201 146.287 0.966201H140.197C132.295 1.43839 129.854 5.06201 129.377 11.8424ZM107.012 0.679718H102.357C101.978 0.679718 101.648 0.81764 101.426 1.02455C101.334 1.10944 101.264 1.21024 101.21 1.32166C101.166 1.42246 101.139 1.53387 101.139 1.64528C101.139 1.86811 101.242 2.11217 101.475 2.35092L105.821 6.74916C106.806 7.74658 108.019 8.97214 109.161 8.97214C111.239 8.97214 113.274 8.97214 115.353 8.97214C116.495 8.97214 117.707 7.74128 118.693 6.74916L123.039 2.35092C123.272 2.11748 123.375 1.87342 123.375 1.64528C123.375 1.53387 123.348 1.42246 123.304 1.32166C123.256 1.21555 123.18 1.11475 123.088 1.02455C122.866 0.81764 122.536 0.679718 122.157 0.679718H117.502C116.917 0.679718 116.251 0.92377 115.651 1.31107C115.039 1.70898 114.509 2.2501 114.2 2.83901L112.262 6.56345L110.325 2.83901C110.016 2.2448 109.486 1.70367 108.874 1.31107C108.262 0.92377 107.597 0.679718 107.012 0.679718Z" fill="#12A8A7"/>
    <path d="M234.338 4.12833C234.219 3.58187 233.997 3.05662 233.673 2.59505C233.364 2.14939 232.958 1.75148 232.471 1.43315L232.438 1.41194C231.94 1.09892 231.405 0.891986 230.853 0.796488C230.284 0.695684 229.694 0.706289 229.131 0.823009C228.568 0.939729 228.027 1.16256 227.551 1.48619C227.091 1.79391 226.679 2.19713 226.36 2.68523C224.606 5.31674 222.847 7.94825 221.104 10.5851C219.361 7.94825 217.602 5.31674 215.849 2.68523C215.529 2.20243 215.118 1.79921 214.658 1.48619C214.176 1.16256 213.64 0.939729 213.077 0.823009C212.514 0.706289 211.924 0.695684 211.356 0.796488C210.804 0.897292 210.268 1.09889 209.77 1.41722L209.721 1.44905C209.24 1.76207 208.839 2.16001 208.531 2.60567C208.211 3.07255 207.989 3.59245 207.87 4.13361C207.751 4.68538 207.74 5.25839 207.843 5.82077C207.941 6.36193 208.152 6.88717 208.471 7.37527L215.849 18.5167L206.901 32.035C206.582 32.5178 206.371 33.0484 206.273 33.5895C206.171 34.1519 206.181 34.7249 206.3 35.2766C206.42 35.8178 206.641 36.3377 206.961 36.8046C207.269 37.2503 207.67 37.6482 208.152 37.9665L208.195 37.993C208.693 38.3061 209.229 38.513 209.781 38.6085C210.355 38.7093 210.939 38.6987 211.502 38.582C212.065 38.4652 212.606 38.2424 213.083 37.9188C213.543 37.6111 213.954 37.2079 214.273 36.7197C216.547 33.2977 218.831 29.8757 221.099 26.4484C223.367 29.8757 225.651 33.2977 227.924 36.7197C228.244 37.2025 228.655 37.6058 229.115 37.9188C229.591 38.2424 230.133 38.4652 230.696 38.582C231.259 38.6987 231.843 38.7093 232.417 38.6085C232.969 38.5077 233.505 38.3061 234.003 37.993L234.041 37.9718C234.528 37.6535 234.928 37.2609 235.237 36.8152C235.556 36.3484 235.784 35.8284 235.903 35.282C236.022 34.7302 236.033 34.1572 235.93 33.5948C235.827 33.0537 235.621 32.5284 235.302 32.0403L226.355 18.522L233.732 7.38058C234.051 6.89248 234.263 6.36721 234.36 5.82605C234.474 5.25837 234.463 4.6854 234.338 4.12833ZM10.7118 14.9514L15.3721 27.3397C16.4276 30.141 17.6725 32.104 18.9986 33.2288C19.8755 33.9715 20.7794 34.3482 21.6725 34.3482C22.5656 34.3482 23.4696 33.9768 24.3464 33.2288C25.6725 32.0987 26.9229 30.1357 27.9729 27.3397L32.6333 14.9514C32.6712 14.8506 33.0176 13.8745 33.4831 13.7736C33.8241 13.6994 34.0947 13.8532 34.2192 14.405L34.23 14.4474V14.4952C34.23 19.1905 34.1272 24.0238 34.0244 28.8517C33.9811 30.7882 33.9432 32.73 33.9053 34.6506C33.9323 35.4783 34.2192 36.2104 34.6739 36.8152C35.1881 37.4996 35.9134 38.0302 36.7307 38.3804C37.0609 38.5236 37.4127 38.635 37.77 38.7146C38.1272 38.7942 38.4845 38.8419 38.8363 38.8525C39.1935 38.8631 39.5562 38.8419 39.9026 38.7835C40.2382 38.7252 40.5629 38.635 40.866 38.5077C41.548 38.2265 42.1489 37.7543 42.5873 37.0752C42.9824 36.4545 43.2476 35.6587 43.318 34.6612V7.88988C43.318 6.76512 43.1285 5.75708 42.7984 4.86576C42.4411 3.91609 41.9161 3.09907 41.2774 2.43058C40.8011 1.93186 40.2652 1.50743 39.6807 1.16788C39.0853 0.817716 38.4357 0.552443 37.7591 0.372058C37.0879 0.191672 36.3951 0.101474 35.7077 0.101474C35.0311 0.101474 34.3437 0.191672 33.6834 0.372058C32.8065 0.616109 31.9567 1.01932 31.1989 1.59762C30.4844 2.13877 29.8512 2.8391 29.3315 3.68797C29.1367 4.0063 28.8769 4.61641 28.6116 5.30082C28.3248 6.03827 28.0541 6.78636 27.8322 7.40179C25.9107 12.7762 23.7023 18.1984 21.6563 23.5516C19.6752 18.3629 17.705 12.3836 15.4858 7.40179C15.2639 6.78105 14.9878 6.01705 14.7064 5.30082C14.4411 4.61641 14.1813 4.0063 13.9865 3.68797C13.4722 2.83379 12.8335 2.13877 12.1191 1.59762C11.3613 1.01932 10.5169 0.616109 9.63464 0.372058C8.97429 0.191672 8.28688 0.101474 7.61029 0.101474C6.92287 0.101474 6.23002 0.191667 5.55884 0.366747C4.88225 0.547133 4.23273 0.812406 3.63733 1.16257C3.05276 1.50212 2.51689 1.92655 2.04057 2.42527C1.40187 3.09906 0.87684 3.91081 0.5196 4.86049C0.184011 5.7465 0 6.75981 0 7.88457V34.6559C0.0703654 35.6533 0.335576 36.4492 0.730704 37.0699C1.16913 37.7543 1.76994 38.2212 2.45195 38.5024C2.75506 38.6297 3.07984 38.7199 3.41543 38.7783C3.76184 38.8366 4.12448 38.8579 4.48172 38.8472C4.83354 38.8366 5.19619 38.7889 5.55342 38.7093C5.91066 38.6297 6.26252 38.5183 6.59269 38.375C7.41001 38.0249 8.13531 37.4943 8.64952 36.8099C9.10419 36.1998 9.39105 35.4729 9.41812 34.6453C9.38564 32.7247 9.34235 30.7882 9.29905 28.8464C9.19621 24.0238 9.09337 19.1905 9.09337 14.4899V14.4527L9.10417 14.3997C9.22866 13.8479 9.49932 13.6941 9.83491 13.7683C10.3166 13.8691 10.6685 14.84 10.7118 14.9514ZM63.7185 11.0785L62.9662 11.0625H61.3369L60.5846 11.0785L59.8052 11.105L58.9987 11.1421C58.7659 11.1527 58.5115 11.1739 58.2355 11.1952L57.456 11.2695L56.6928 11.365C56.4168 11.4021 56.1732 11.4445 55.9513 11.4817C55.7186 11.5241 55.4858 11.5719 55.2476 11.6302C55.0203 11.6833 54.7876 11.747 54.5602 11.8159C54.3437 11.8796 54.1218 11.9539 53.9053 12.0388C53.6888 12.1183 53.4723 12.2085 53.2612 12.2987C53.0609 12.3889 52.8606 12.4844 52.6712 12.5905C52.4709 12.6966 52.2815 12.8133 52.1082 12.9301C51.9296 13.0521 51.751 13.1847 51.5724 13.3227C51.3938 13.4659 51.226 13.6145 51.069 13.763C50.8904 13.9381 50.7172 14.1238 50.5494 14.3254C50.3816 14.527 50.2246 14.7286 50.0893 14.9302C49.9486 15.1371 49.8133 15.36 49.6834 15.5881C49.5535 15.8215 49.4398 16.055 49.3369 16.2937C49.2341 16.5272 49.1313 16.7871 49.0284 17.0577C48.931 17.3177 48.839 17.583 48.7578 17.8376C48.6712 18.1082 48.5954 18.3682 48.5304 18.6175C48.4655 18.8722 48.4005 19.1321 48.3464 19.3921C48.2923 19.6468 48.2436 19.912 48.1949 20.1826C48.1461 20.4532 48.1082 20.7079 48.0758 20.9466C48.0433 21.2013 48.0108 21.4559 47.9892 21.6947C47.9675 21.9334 47.9513 22.1828 47.9404 22.4322L47.8863 23.8487L47.8755 24.4323L47.8701 25.0318C47.8701 25.4669 47.8755 25.8648 47.8863 26.215L47.9404 27.6315C47.9513 27.8862 47.9729 28.1302 47.9892 28.3742C48.0108 28.6183 48.0433 28.8677 48.0704 29.1223C48.1029 29.3611 48.1407 29.6157 48.1894 29.8863C48.2327 30.1463 48.2869 30.4116 48.341 30.6768C48.3951 30.9368 48.4547 31.1968 48.525 31.4514C48.59 31.7008 48.6712 31.9607 48.7524 32.2313C48.8335 32.486 48.9256 32.746 49.023 33.0112C49.1258 33.2871 49.2287 33.5418 49.3315 33.7805C49.4344 34.0139 49.548 34.2474 49.6779 34.4808C49.8024 34.7037 49.9378 34.9212 50.0839 35.1387C50.2246 35.3456 50.3816 35.5472 50.5494 35.7488C50.7118 35.9451 50.885 36.1308 51.069 36.3112C51.2314 36.4651 51.3992 36.6136 51.5724 36.7516C51.7402 36.8895 51.9242 37.0168 52.1082 37.1442C52.2869 37.2662 52.4763 37.3776 52.6712 37.489C52.8606 37.5952 53.0555 37.6906 53.2612 37.7808C53.4723 37.871 53.6833 37.9612 53.8999 38.0408C54.1218 38.1204 54.3437 38.1947 54.5602 38.2636C54.7876 38.3326 55.0203 38.3963 55.253 38.4493C55.4912 38.5077 55.724 38.5554 55.9513 38.5979L56.6874 38.7146L57.4506 38.8101L58.2192 38.8843L58.9932 38.9374C59.5291 38.964 60.0541 38.9852 60.5683 38.9958C61.0555 39.0064 61.5859 39.017 62.1597 39.017L62.9662 39.0117L63.7077 38.9958L64.4871 38.9693L65.3045 38.9321C65.5426 38.9215 65.8079 38.9003 66.0839 38.8791L66.8688 38.8048L67.6319 38.7093C67.9026 38.6722 68.1516 38.6297 68.3735 38.5926C68.6008 38.5501 68.839 38.5024 69.0717 38.444C69.3045 38.391 69.5318 38.3273 69.7645 38.2583C69.9756 38.1946 70.1976 38.1204 70.4195 38.0355C70.6468 37.9506 70.8579 37.8657 71.0636 37.7755C71.2639 37.6853 71.4642 37.5898 71.6536 37.4837C71.8485 37.3776 72.0379 37.2609 72.2219 37.1389C72.406 37.0115 72.59 36.8842 72.7578 36.7463C72.931 36.6083 73.0988 36.4598 73.2612 36.3059C73.4398 36.1308 73.613 35.9451 73.7808 35.7435C73.9486 35.5419 74.1056 35.3403 74.2409 35.1387C74.3816 34.9265 74.5223 34.709 74.6468 34.4755C74.7713 34.2421 74.8904 34.0087 74.9932 33.7752C75.0961 33.5312 75.1989 33.2765 75.3018 33.0112C75.3992 32.746 75.4912 32.486 75.5724 32.2313C75.659 31.966 75.7348 31.7061 75.7997 31.4514C75.8647 31.1968 75.9297 30.9368 75.9838 30.6715C76.0379 30.4115 76.092 30.1463 76.1353 29.8757C76.184 29.6051 76.2219 29.3558 76.249 29.117C76.2815 28.8624 76.3139 28.613 76.3356 28.369C76.3572 28.1302 76.3735 27.8809 76.3897 27.6262L76.4439 26.215L76.4547 25.626V25.0265C76.4547 24.5915 76.4493 24.1936 76.4384 23.8381L76.3843 22.4268C76.3735 22.1722 76.3572 21.9228 76.3356 21.6841C76.3139 21.4347 76.2869 21.1854 76.249 20.936C76.2165 20.6973 76.1786 20.4426 76.1299 20.172C76.0866 19.9121 76.0325 19.6468 75.9784 19.3815C75.9242 19.1216 75.8647 18.8616 75.7943 18.6069C75.7294 18.3576 75.6482 18.0923 75.567 17.827C75.4858 17.5723 75.3938 17.3124 75.2964 17.0471C75.1935 16.7765 75.0907 16.5166 74.9932 16.2831C74.8904 16.0444 74.7767 15.8056 74.6468 15.5775C74.5223 15.3493 74.387 15.1265 74.2463 14.9196C74.1056 14.718 73.9486 14.5164 73.7808 14.3148C73.613 14.1185 73.4398 13.9275 73.2612 13.7577C73.0988 13.6039 72.931 13.4553 72.7578 13.3174C72.5792 13.1741 72.4006 13.0468 72.2219 12.9248C72.0379 12.8027 71.8485 12.686 71.6536 12.5799C71.4696 12.4791 71.2693 12.3783 71.0636 12.2881C70.8525 12.1926 70.636 12.1077 70.4195 12.0281C70.1976 11.9486 69.9757 11.8743 69.7592 11.8053C69.5318 11.7363 69.3045 11.6727 69.0717 11.6196C68.8336 11.5613 68.5954 11.5135 68.3681 11.4711C68.1462 11.4286 67.8972 11.3915 67.6265 11.3544L66.8579 11.2589C66.6035 11.2323 66.3437 11.2058 66.0839 11.1846L65.299 11.1315L64.4871 11.0944L63.7185 11.0785ZM56.0163 27.2071C55.9892 26.9047 55.9675 26.5651 55.9513 26.1831C55.9351 25.8011 55.9296 25.4138 55.9296 25.0318C55.9296 24.618 55.9405 24.2095 55.9567 23.8063C55.973 23.4243 55.9946 23.0688 56.0271 22.7345C56.0595 22.3844 56.1028 22.082 56.1462 21.8167C56.1949 21.5408 56.2544 21.2915 56.3248 21.074L56.5034 20.5328L56.6658 20.0818L56.8336 19.6839C56.8931 19.5566 56.9472 19.4452 57.0014 19.355L57.0555 19.2754C57.1475 19.1481 57.2503 19.026 57.3532 18.9093C57.4614 18.7926 57.5859 18.6706 57.7212 18.5539C57.8457 18.4372 57.9865 18.3204 58.138 18.2037C58.2842 18.087 58.4466 17.9703 58.6252 17.8482C58.8363 17.6997 59.0744 17.5723 59.3397 17.4662C59.5941 17.3601 59.8755 17.2752 60.1841 17.2063C60.4655 17.1426 60.7794 17.0949 61.115 17.063C61.4506 17.0312 61.8024 17.0153 62.1597 17.0153C62.5169 17.0153 62.8687 17.0312 63.2043 17.063C63.5399 17.0949 63.8485 17.1426 64.1353 17.2063C64.4439 17.2752 64.7253 17.3601 64.9797 17.4662C65.2395 17.5723 65.4777 17.705 65.6942 17.8535C65.8728 17.9756 66.0352 18.0976 66.1813 18.209C66.3221 18.3204 66.4628 18.4371 66.5981 18.5591C66.7334 18.6812 66.8579 18.8032 66.9662 18.9199C67.0744 19.042 67.1773 19.164 67.2693 19.286L67.2909 19.3125C67.3829 19.4452 67.4641 19.5884 67.5399 19.7423C67.6157 19.8961 67.6915 20.0606 67.751 20.2304C67.8106 20.3895 67.8701 20.5699 67.935 20.7715C67.9946 20.9678 68.0487 21.1641 68.092 21.3658C68.1407 21.578 68.1895 21.822 68.2273 22.0926C68.2652 22.3579 68.2977 22.6444 68.3194 22.9521C68.341 23.2439 68.3572 23.5675 68.3735 23.9389C68.3843 24.3156 68.3897 24.687 68.3897 25.0424C68.3897 25.2812 68.3843 25.5465 68.3735 25.8383C68.3626 26.1141 68.3519 26.3794 68.3356 26.6234C68.3194 26.8728 68.2977 27.1222 68.2707 27.3609C68.2436 27.6103 68.2111 27.849 68.1786 28.0666C68.1407 28.3053 68.0974 28.5387 68.0379 28.7722C67.9838 29.0003 67.9134 29.2231 67.8376 29.4406C67.7564 29.6635 67.6698 29.8757 67.5778 30.0667C67.4804 30.263 67.3721 30.4593 67.2531 30.6503C67.1719 30.7723 67.0798 30.8996 66.9716 31.0323C66.8633 31.1596 66.7389 31.287 66.6035 31.4196C66.4845 31.5363 66.3437 31.6583 66.1867 31.7857C66.0352 31.913 65.8674 32.0403 65.6942 32.1677C65.4777 32.3268 65.2341 32.4648 64.9743 32.5815C64.7145 32.6929 64.433 32.7884 64.1245 32.8627C63.8376 32.9316 63.5291 32.9847 63.1989 33.0165C62.8687 33.0484 62.5223 33.0696 62.1651 33.0696C61.7429 33.0696 61.3424 33.0431 60.9743 32.99C60.7848 32.9635 60.6062 32.9263 60.4276 32.8839C60.249 32.8414 60.0812 32.7937 59.9242 32.7353L59.502 32.5762L59.1286 32.4117L58.7713 32.2313L58.4411 32.0403L58.1434 31.844C58.0514 31.7804 57.9648 31.7114 57.8782 31.6424C57.797 31.5735 57.7158 31.4992 57.6347 31.4249C57.5643 31.3559 57.4885 31.2763 57.4181 31.1914C57.299 31.0429 57.1854 30.8997 57.0771 30.7458L57.0014 30.6238C56.9364 30.5283 56.8769 30.4222 56.8227 30.3054C56.7632 30.1887 56.7036 30.0455 56.6387 29.8863C56.5792 29.7325 56.5196 29.5733 56.4655 29.4035L56.2923 28.8517C56.2328 28.6395 56.1786 28.3955 56.1299 28.1196C56.0866 27.8331 56.0487 27.536 56.0163 27.2071ZM88.1841 10.3516V3.40149C88.1841 2.64281 87.9946 2.01674 87.6698 1.52333C87.3126 0.976871 86.7876 0.573656 86.1813 0.329605C85.9269 0.223496 85.6563 0.143908 85.3748 0.0908531C85.088 0.0324931 84.7903 0.00597486 84.498 0.000669402C84.2057 -0.00463605 83.9026 0.0218938 83.6049 0.0696429C83.3126 0.117392 83.0257 0.191659 82.7497 0.292463C82.0569 0.54182 81.4344 0.950344 80.9959 1.52333C80.6008 2.02735 80.3464 2.66933 80.3085 3.43332V34.4437L80.3194 34.9159C80.3248 35.0644 80.341 35.213 80.3572 35.3562C80.3735 35.5048 80.3951 35.6427 80.4168 35.7701L80.5034 36.1627C80.5305 36.2688 80.5629 36.3802 80.6062 36.4863C80.6495 36.5924 80.6982 36.6985 80.7578 36.8099C80.8173 36.916 80.8823 37.0221 80.9635 37.1282C81.0447 37.2397 81.1259 37.3458 81.2179 37.4413L81.2395 37.4625C81.3802 37.627 81.521 37.7702 81.6617 37.9029C81.8025 38.0302 81.9378 38.1416 82.0785 38.2371C82.2084 38.3273 82.3437 38.4016 82.4736 38.4599C82.5981 38.5183 82.728 38.5607 82.8579 38.5926C83.0365 38.635 83.2043 38.6721 83.3667 38.704C83.5345 38.7358 83.6915 38.7623 83.8376 38.7835C83.9838 38.7995 84.1353 38.8154 84.2923 38.826C84.433 38.8366 84.5846 38.8419 84.7416 38.8419H96.3518L96.8282 38.8366L97.3207 38.8101L97.8728 38.7676L98.4682 38.7093C98.6685 38.6881 98.8579 38.6615 99.042 38.6297C99.2314 38.5979 99.4263 38.5554 99.6103 38.5077C99.7943 38.4599 99.9892 38.4016 100.195 38.3379C100.395 38.2742 100.585 38.2053 100.769 38.131C100.953 38.0567 101.142 37.9771 101.326 37.887C101.516 37.7968 101.7 37.696 101.884 37.5845C102.062 37.4784 102.246 37.3564 102.436 37.229C102.609 37.107 102.798 36.9691 102.988 36.8099C103.161 36.6667 103.329 36.5128 103.491 36.3537C103.648 36.1892 103.811 36.0088 103.962 35.8125C104.124 35.6056 104.281 35.3934 104.422 35.1758C104.563 34.9583 104.709 34.7143 104.844 34.4596C104.969 34.2315 105.093 33.9768 105.207 33.7063C105.321 33.4357 105.429 33.1545 105.526 32.8521C105.629 32.5496 105.721 32.226 105.808 31.8865C105.894 31.5416 105.976 31.1914 106.046 30.8307C106.116 30.4699 106.176 30.072 106.235 29.6369C106.29 29.2072 106.333 28.7509 106.371 28.2734C106.409 27.7747 106.436 27.2601 106.452 26.7296C106.468 26.2149 106.479 25.642 106.479 25.0106C106.479 24.5915 106.474 24.2042 106.468 23.8593C106.457 23.4826 106.441 23.09 106.425 22.6868C106.403 22.2995 106.382 21.891 106.349 21.4559C106.317 21.005 106.279 20.5806 106.241 20.1773C106.203 19.7794 106.143 19.3762 106.062 18.973C105.981 18.5698 105.884 18.1772 105.765 17.8005C105.645 17.4185 105.505 17.0418 105.348 16.6704C105.191 16.299 105.007 15.933 104.807 15.5669C104.655 15.2963 104.503 15.0416 104.352 14.8135C104.2 14.5854 104.043 14.3732 103.881 14.1716C103.724 13.9753 103.562 13.7949 103.399 13.6304C103.231 13.4606 103.064 13.3121 102.896 13.1794C102.717 13.0415 102.533 12.9089 102.344 12.7762C102.16 12.6489 101.976 12.5322 101.792 12.4314C101.597 12.3199 101.413 12.2245 101.24 12.1449C101.061 12.06 100.877 11.9857 100.682 11.9114C100.487 11.8372 100.292 11.7735 100.103 11.7151C99.9243 11.6621 99.7294 11.609 99.5345 11.5666C99.3342 11.5188 99.1394 11.4817 98.9608 11.4552C98.7713 11.4233 98.5873 11.4021 98.4141 11.3862L97.8241 11.3384L97.2558 11.3066L96.7307 11.2854L96.2057 11.2801H88.1786V10.3516H88.1841ZM88.2003 29.7165C88.0758 25.5518 88.1841 21.2596 88.1841 17.0789C89.9053 17.0789 92.747 16.819 94.4141 17.1479C94.5224 17.1638 94.6252 17.1797 94.7172 17.201C94.8201 17.2222 94.9175 17.2487 95.0149 17.2805L95.3018 17.3867L95.5887 17.514C95.6969 17.567 95.7998 17.6254 95.8972 17.6891C95.9892 17.7474 96.092 17.8217 96.1949 17.9013C96.3031 17.9862 96.3952 18.0658 96.4818 18.1453C96.5738 18.2249 96.6604 18.3151 96.7524 18.4106C96.8498 18.5114 96.9472 18.6281 97.0338 18.7449C97.1204 18.8616 97.2016 18.9889 97.2828 19.1215C97.364 19.2542 97.4344 19.3921 97.5047 19.5247C97.5751 19.668 97.6347 19.8112 97.6942 19.9598L97.7916 20.2463L97.8999 20.6018L98.1326 21.5196C98.1814 21.7159 98.2192 21.9387 98.2571 22.1881C98.2896 22.4321 98.3221 22.6974 98.3437 22.9733C98.3654 23.2386 98.3816 23.5357 98.3924 23.8699C98.4033 24.2148 98.4087 24.5543 98.4087 24.8833C98.4087 25.2228 98.4033 25.573 98.3924 25.9391C98.3816 26.2892 98.3654 26.6022 98.3491 26.8834C98.3275 27.1858 98.3058 27.4564 98.2734 27.7005C98.2409 27.9551 98.2084 28.1833 98.1651 28.3902L98.046 28.9366L97.9215 29.4301C97.8728 29.5998 97.8241 29.7484 97.7808 29.8757C97.7321 30.0083 97.6834 30.1357 97.6347 30.2524C97.5535 30.4434 97.4615 30.6291 97.3586 30.7988C97.2558 30.9686 97.1421 31.1331 97.0176 31.2922C96.8877 31.4567 96.7524 31.6053 96.6062 31.7379C96.4601 31.8706 96.3031 31.9979 96.1353 32.1146C95.9567 32.2366 95.7619 32.3427 95.5508 32.4329C95.3451 32.5178 95.1232 32.5921 94.8742 32.6504C94.6468 32.7035 94.4087 32.746 94.1597 32.7725C93.9053 32.799 93.6455 32.8149 93.3802 32.8149C92.3951 32.8149 91.3884 32.7512 90.4357 32.7512C90.295 32.7353 90.1597 32.7088 90.0298 32.6717C89.8999 32.6345 89.77 32.5815 89.6455 32.5178C89.5318 32.4594 89.4127 32.3905 89.2991 32.3109C89.1854 32.2313 89.0826 32.1411 88.9797 32.0456L88.931 31.9926C88.8336 31.8812 88.7416 31.7591 88.6604 31.6265C88.5846 31.4992 88.5142 31.3665 88.4547 31.218C88.4006 31.0854 88.3573 30.9421 88.3194 30.7935C88.2869 30.645 88.2598 30.4911 88.249 30.3426C88.2382 30.141 88.2003 29.9181 88.2003 29.7165ZM193.294 7.82622L193.18 7.57688C192.704 6.31418 192.125 5.22123 191.47 4.29808C190.788 3.33779 190.024 2.56322 189.218 1.97432C188.579 1.50744 187.908 1.15726 187.221 0.929124C186.533 0.695684 185.824 0.578978 185.115 0.578978C184.406 0.578978 183.697 0.695684 183.01 0.929124C182.322 1.16256 181.651 1.51274 181.012 1.97432C180.2 2.56322 179.443 3.33779 178.761 4.29808C178.106 5.22123 177.526 6.31418 177.05 7.57688C175.432 11.8637 173.667 16.2089 171.908 20.5434C170.176 24.809 168.444 29.0799 166.793 33.441C166.593 33.9715 166.512 34.5127 166.539 35.0485C166.566 35.6056 166.701 36.1521 166.939 36.6508C167.177 37.1495 167.507 37.6057 167.924 37.993C168.325 38.3644 168.801 38.6669 169.337 38.8738L169.413 38.9003C169.97 39.1019 170.544 39.1868 171.102 39.1656C171.686 39.1443 172.254 39.0064 172.774 38.773C173.294 38.5395 173.77 38.2053 174.165 37.7862C174.544 37.3882 174.853 36.9054 175.058 36.3643C175.248 35.8549 175.415 35.404 175.572 34.953C175.957 33.876 176.352 32.7725 176.807 31.7857L177.884 28.9685H192.357L193.359 31.5947C193.84 32.7566 194.273 33.9291 194.712 35.1016L195.183 36.3643C195.388 36.9054 195.697 37.3882 196.076 37.7862C196.471 38.2053 196.947 38.5395 197.467 38.773C197.986 39.0064 198.56 39.1443 199.139 39.1656C199.697 39.1868 200.271 39.1019 200.828 38.9003L200.915 38.8685C201.451 38.6615 201.922 38.3591 202.322 37.993C202.739 37.611 203.069 37.1495 203.307 36.6508C203.545 36.1468 203.681 35.6003 203.708 35.0485C203.729 34.518 203.648 33.9715 203.448 33.441C200.325 25.1857 196.969 16.8826 193.678 8.74936L193.294 7.82622ZM188.292 18.8191L189.727 22.3579H180.503L182.035 18.591C182.701 16.9569 183.367 15.3122 184.238 13.1423L185.12 10.9352L186.003 13.1423C186.869 15.3122 187.54 16.9569 188.206 18.591L188.292 18.8191Z" fill="white"/>
</svg>
